<svg width="149" height="125" viewBox="0 0 149 125" fill="none" xmlns="http://www.w3.org/2000/svg">
<path d="M113.369 124.8C101.769 124.8 93.3688 120.8 88.1688 112.8C82.9688 104.8 80.3688 95.6 80.3688 85.2C80.3688 79.2 81.1688 72.6 82.7688 65.4C84.3688 58.2 87.3688 51 91.7688 43.8C96.5688 36.2 103.169 28.8 111.569 21.6C119.969 14 131.169 6.79999 145.169 -1.28746e-05L148.769 5.39999C140.769 13 134.369 19.6 129.569 25.2C125.169 30.8 121.769 36 119.369 40.8C116.969 45.6 115.369 50 114.569 54C114.169 58 113.969 62.2 113.969 66.6C113.969 69.8 114.969 72.2 116.969 73.8C118.969 75 121.169 76.6 123.569 78.6C127.169 81 130.369 83.4 133.169 85.8C136.369 87.8 137.969 92.2 137.969 99C137.969 106.2 135.569 112.4 130.769 117.6C125.969 122.4 120.169 124.8 113.369 124.8ZM34.1688 124.8C22.5688 124.8 13.9688 120.8 8.36875 112.8C3.16875 104.8 0.56875 95.6 0.56875 85.2C0.56875 79.2 1.36875 72.8 2.96875 66C4.56875 58.8 7.76875 51.4 12.5688 43.8C17.3688 36.2 23.9688 28.8 32.3688 21.6C40.7688 14 51.9688 6.79999 65.9688 -1.28746e-05L69.5688 5.39999C61.5688 13 55.1688 19.6 50.3688 25.2C45.9688 30.8 42.5688 36 40.1688 40.8C37.7688 45.6 36.1688 50 35.3688 54C34.9688 58 34.7688 62.2 34.7688 66.6C34.7688 69.8 35.5688 72.2 37.1688 73.8C39.1688 75.4 41.3688 76.8 43.7688 78C46.9688 80 50.1688 82.4 53.3688 85.2C56.9688 87.6 58.7688 92.2 58.7688 99C58.7688 106.2 56.3688 112.4 51.5688 117.6C47.1688 122.4 41.3688 124.8 34.1688 124.8Z" fill="#181818" fill-opacity="0.62"/>
</svg>
